<svg width="900" height="300" viewBox="0 0 900 300" fill="none" xmlns="http://www.w3.org/2000/svg">
<g clip-path="url(#clip0_1288_2853)">
<rect width="900" height="300" fill="#152A43"/>
<g filter="url(#filter0_ii_1288_2853)">
<circle cx="450" cy="150" r="613" fill="black" fill-opacity="0.01"/>
</g>
<path d="M184.763 179.82C182.767 179.82 180.784 179.738 178.815 179.574C176.874 179.438 174.892 179.246 172.868 179L176.478 170.018C177.927 170.701 179.526 171.111 181.276 171.248C183.026 171.357 184.763 171.412 186.485 171.412C191.489 171.412 195.358 169.936 198.093 166.982C200.827 164.002 202.194 159.805 202.194 154.391C202.194 150.781 201.388 148.006 199.774 146.064C198.161 144.096 195.864 143.111 192.884 143.111C185.884 143.111 182.384 146.926 182.384 154.555L179.841 143.398H183.327C183.847 137.602 187.36 134.703 193.868 134.703C199.556 134.703 203.958 136.412 207.075 139.83C210.192 143.248 211.751 148.102 211.751 154.391C211.751 162.457 209.399 168.719 204.696 173.176C199.993 177.605 193.349 179.82 184.763 179.82ZM172.868 179V117.477H182.384V178.262L172.868 179ZM248.03 179.41L247.333 166.531L246.513 162.225V151.93C246.513 149.223 245.501 147.24 243.477 145.982C241.481 144.725 238.487 144.041 234.495 143.932L223.831 143.645L224.651 135.113L233.675 135.236C241.085 135.346 246.595 136.904 250.204 139.912C253.813 142.893 255.618 147.254 255.618 152.996V170.428L262.55 171.33V179L248.03 179.41ZM232.895 179.82C228.329 179.82 224.788 178.713 222.272 176.498C219.757 174.283 218.499 171.152 218.499 167.105C218.499 162.402 220.208 158.807 223.626 156.318C227.044 153.803 231.87 152.545 238.104 152.545C240.62 152.545 242.835 152.695 244.749 152.996C246.69 153.27 248.495 153.707 250.163 154.309L248.358 161.117C246.554 160.707 244.831 160.475 243.19 160.42C241.577 160.338 239.895 160.297 238.145 160.297C231.227 160.297 227.768 162.375 227.768 166.531C227.768 168.309 228.37 169.676 229.573 170.633C230.776 171.562 232.499 172.027 234.741 172.027C237.366 172.027 239.554 171.576 241.304 170.674C243.054 169.744 244.352 168.568 245.2 167.146C246.075 165.697 246.513 164.221 246.513 162.717V158.656L248.727 169.812H245.282L246.677 168.5C246.649 171.016 246.075 173.121 244.954 174.816C243.833 176.484 242.247 177.742 240.196 178.59C238.145 179.41 235.712 179.82 232.895 179.82ZM296.245 179V151.643C296.245 149.018 295.602 146.994 294.317 145.572C293.059 144.15 291.282 143.439 288.985 143.439C282.559 143.439 279.346 147.459 279.346 155.498L276.803 143.398H280.249C280.55 140.473 281.589 138.299 283.366 136.877C285.171 135.428 287.823 134.703 291.323 134.703C295.917 134.703 299.471 136.098 301.987 138.887C304.503 141.676 305.76 145.613 305.76 150.699V179H296.245ZM269.831 179V135.523H278.403L279.346 144.711V179H269.831ZM344.788 179.41L344.09 166.531L343.27 162.225V151.93C343.27 149.223 342.258 147.24 340.235 145.982C338.239 144.725 335.245 144.041 331.252 143.932L320.588 143.645L321.409 135.113L330.432 135.236C337.842 135.346 343.352 136.904 346.961 139.912C350.571 142.893 352.376 147.254 352.376 152.996V170.428L359.307 171.33V179L344.788 179.41ZM329.653 179.82C325.086 179.82 321.545 178.713 319.03 176.498C316.514 174.283 315.256 171.152 315.256 167.105C315.256 162.402 316.965 158.807 320.383 156.318C323.801 153.803 328.627 152.545 334.862 152.545C337.377 152.545 339.592 152.695 341.506 152.996C343.448 153.27 345.252 153.707 346.92 154.309L345.116 161.117C343.311 160.707 341.588 160.475 339.948 160.42C338.335 160.338 336.653 160.297 334.903 160.297C327.985 160.297 324.526 162.375 324.526 166.531C324.526 168.309 325.127 169.676 326.331 170.633C327.534 171.562 329.256 172.027 331.499 172.027C334.124 172.027 336.311 171.576 338.061 170.674C339.811 169.744 341.11 168.568 341.958 167.146C342.833 165.697 343.27 164.221 343.27 162.717V158.656L345.485 169.812H342.04L343.434 168.5C343.407 171.016 342.833 173.121 341.711 174.816C340.59 176.484 339.004 177.742 336.954 178.59C334.903 179.41 332.469 179.82 329.653 179.82ZM393.002 179V151.643C393.002 149.018 392.36 146.994 391.075 145.572C389.817 144.15 388.039 143.439 385.743 143.439C379.317 143.439 376.104 147.459 376.104 155.498L373.561 143.398H377.006C377.307 140.473 378.346 138.299 380.123 136.877C381.928 135.428 384.58 134.703 388.08 134.703C392.674 134.703 396.229 136.098 398.745 138.887C401.26 141.676 402.518 145.613 402.518 150.699V179H393.002ZM366.588 179V135.523H375.161L376.104 144.711V179H366.588ZM441.545 179.41L440.848 166.531L440.028 162.225V151.93C440.028 149.223 439.016 147.24 436.992 145.982C434.996 144.725 432.002 144.041 428.01 143.932L417.346 143.645L418.166 135.113L427.19 135.236C434.6 135.346 440.11 136.904 443.719 139.912C447.328 142.893 449.133 147.254 449.133 152.996V170.428L456.065 171.33V179L441.545 179.41ZM426.41 179.82C421.844 179.82 418.303 178.713 415.787 176.498C413.272 174.283 412.014 171.152 412.014 167.105C412.014 162.402 413.723 158.807 417.141 156.318C420.559 153.803 425.385 152.545 431.619 152.545C434.135 152.545 436.35 152.695 438.264 152.996C440.205 153.27 442.01 153.707 443.678 154.309L441.873 161.117C440.069 160.707 438.346 160.475 436.705 160.42C435.092 160.338 433.41 160.297 431.66 160.297C424.742 160.297 421.283 162.375 421.283 166.531C421.283 168.309 421.885 169.676 423.088 170.633C424.291 171.562 426.014 172.027 428.256 172.027C430.881 172.027 433.069 171.576 434.819 170.674C436.569 169.744 437.867 168.568 438.715 167.146C439.59 165.697 440.028 164.221 440.028 162.717V158.656L442.242 169.812H438.797L440.192 168.5C440.164 171.016 439.59 173.121 438.469 174.816C437.348 176.484 435.762 177.742 433.711 178.59C431.66 179.41 429.227 179.82 426.41 179.82Z" fill="#FFDC52"/>
<path d="M481.311 179.82C479.506 179.82 477.961 179.178 476.676 177.893C475.391 176.607 474.748 175.076 474.748 173.299C474.748 171.467 475.391 169.922 476.676 168.664C477.961 167.379 479.506 166.736 481.311 166.736C483.143 166.736 484.688 167.379 485.945 168.664C487.231 169.922 487.873 171.453 487.873 173.258C487.873 175.062 487.231 176.607 485.945 177.893C484.688 179.178 483.143 179.82 481.311 179.82ZM786.226 187.203C777.175 187.203 770.148 183.936 765.144 177.4C760.14 170.838 757.638 161.582 757.638 149.633C757.638 137.848 760.14 128.729 765.144 122.275C770.148 115.795 777.175 112.555 786.226 112.555H788.112V120.922H786.759C780.497 120.922 775.671 123.438 772.28 128.469C768.89 133.473 767.194 140.527 767.194 149.633C767.194 158.902 768.89 166.094 772.28 171.207C775.671 176.293 780.497 178.836 786.759 178.836H788.112V187.203H786.226ZM803.433 187.203V178.836H804.786C811.048 178.836 815.874 176.293 819.265 171.207C822.655 166.094 824.351 158.902 824.351 149.633C824.351 140.527 822.655 133.473 819.265 128.469C815.874 123.438 811.048 120.922 804.786 120.922H803.433V112.555H805.319C814.397 112.555 821.425 115.795 826.401 122.275C831.378 128.729 833.866 137.848 833.866 149.633C833.866 161.582 831.378 170.838 826.401 177.4C821.425 183.936 814.397 187.203 805.319 187.203H803.433Z" fill="#B7B7B7"/>
<path d="M534.16 179.82C526.586 179.82 520.734 177.879 516.605 173.996C512.476 170.086 510.412 164.48 510.412 157.18C510.412 150.07 512.34 144.547 516.195 140.609C520.051 136.672 525.56 134.703 532.725 134.703C537.045 134.703 540.75 135.523 543.84 137.164C546.93 138.777 549.117 141.074 550.402 144.055L543.266 149.592C542.062 147.623 540.504 146.105 538.59 145.039C536.703 143.973 534.639 143.439 532.396 143.439C528.514 143.439 525.492 144.602 523.332 146.926C521.172 149.223 520.092 152.504 520.092 156.77C520.092 161.418 521.391 164.973 523.988 167.434C526.586 169.867 530.305 171.084 535.144 171.084C537.168 171.084 539.178 170.988 541.174 170.797C543.17 170.605 545.111 170.346 546.998 170.018L548.064 178.59C545.822 179.082 543.512 179.41 541.133 179.574C538.754 179.738 536.43 179.82 534.16 179.82ZM578.068 179.82C571.97 179.82 567.226 177.852 563.836 173.914C560.472 169.977 558.791 164.426 558.791 157.262C558.791 150.07 560.472 144.52 563.836 140.609C567.226 136.672 571.97 134.703 578.068 134.703C584.193 134.703 588.937 136.672 592.301 140.609C595.664 144.52 597.345 150.07 597.345 157.262C597.345 164.426 595.664 169.977 592.301 173.914C588.937 177.852 584.193 179.82 578.068 179.82ZM578.068 171.084C581.103 171.084 583.427 169.881 585.041 167.475C586.681 165.068 587.502 161.664 587.502 157.262C587.502 152.832 586.681 149.428 585.041 147.049C583.4 144.643 581.076 143.439 578.068 143.439C575.06 143.439 572.736 144.643 571.095 147.049C569.455 149.428 568.635 152.832 568.635 157.262C568.635 161.664 569.455 165.068 571.095 167.475C572.736 169.881 575.06 171.084 578.068 171.084ZM622.796 179.82C617.218 179.82 612.939 177.934 609.959 174.16C607.005 170.359 605.529 164.822 605.529 157.549C605.529 150.111 607.005 144.451 609.959 140.568C612.939 136.658 617.232 134.703 622.837 134.703C626.064 134.703 628.621 135.455 630.507 136.959C632.421 138.463 633.584 140.609 633.994 143.398H637.439L634.896 156.318C634.896 151.916 634.076 148.621 632.435 146.434C630.795 144.219 628.361 143.111 625.134 143.111C621.853 143.111 619.351 144.342 617.629 146.803C615.933 149.264 615.086 152.846 615.086 157.549C615.086 162.115 615.933 165.574 617.629 167.926C619.324 170.25 621.826 171.412 625.134 171.412C628.47 171.412 630.931 170.318 632.517 168.131C634.103 165.943 634.896 162.648 634.896 158.246L637.849 171.125H634.035C633.707 173.914 632.558 176.061 630.589 177.564C628.621 179.068 626.023 179.82 622.796 179.82ZM636.045 179.41L634.896 170.838V117.477H644.412V179L636.045 179.41ZM678.476 179.82C671.039 179.82 665.283 177.879 661.208 173.996C657.162 170.086 655.138 164.48 655.138 157.18C655.138 150.07 656.861 144.547 660.306 140.609C663.751 136.672 668.605 134.703 674.867 134.703C680.855 134.703 685.49 136.494 688.771 140.076C692.052 143.658 693.693 148.867 693.693 155.703C693.693 157.699 693.611 159.559 693.447 161.281H662.439V154.309H684.792C684.792 150.727 683.917 147.979 682.167 146.064C680.445 144.15 678.039 143.193 674.949 143.193C671.531 143.193 668.878 144.383 666.992 146.762C665.105 149.113 664.162 152.449 664.162 156.77C664.162 161.473 665.488 165.055 668.14 167.516C670.792 169.977 674.566 171.207 679.46 171.207C681.32 171.207 683.152 171.111 684.956 170.92C686.761 170.701 688.607 170.414 690.494 170.059L691.56 178.672C688.908 179.164 686.488 179.479 684.3 179.615C682.113 179.752 680.171 179.82 678.476 179.82ZM719.841 179.82C716.56 179.82 713.702 179.725 711.269 179.533C708.863 179.342 706.689 179.027 704.747 178.59L705.855 169.771C708.917 170.209 711.57 170.537 713.812 170.756C716.081 170.975 718.091 171.084 719.841 171.084C724.025 171.084 727.046 170.715 728.906 169.977C730.792 169.238 731.736 168.062 731.736 166.449C731.736 165.355 731.435 164.535 730.833 163.988C730.232 163.414 729.302 162.963 728.044 162.635L716.601 159.559C712.8 158.547 709.984 157.221 708.152 155.58C706.32 153.912 705.404 151.506 705.404 148.361C705.404 143.631 707.277 140.172 711.023 137.984C714.769 135.797 720.689 134.703 728.782 134.703C730.806 134.703 732.761 134.771 734.648 134.908C736.534 135.018 738.49 135.223 740.513 135.523L739.488 144.014C737.191 143.795 735.167 143.645 733.417 143.562C731.667 143.48 730.04 143.439 728.536 143.439C723.861 143.439 720.47 143.795 718.365 144.506C716.286 145.217 715.247 146.379 715.247 147.992C715.247 149.059 715.603 149.838 716.314 150.33C717.052 150.822 718.173 151.26 719.677 151.643L729.152 154.104C733.445 155.17 736.603 156.633 738.626 158.492C740.65 160.352 741.661 162.963 741.661 166.326C741.661 171.002 739.911 174.42 736.411 176.58C732.911 178.74 727.388 179.82 719.841 179.82Z" fill="#51CBFF"/>
<path d="M149.278 173.827C148.405 175.634 144.753 175.519 142.74 174.883C137.595 173.26 134.394 168.835 134.394 168.835L107.873 157.58L99.7498 153.316C99.7498 153.316 98.1726 150.636 101.327 148.592C104.481 146.548 106.694 146.395 106.694 146.395L115.836 152.213C115.836 152.213 121.739 147.62 127.733 146.923C133.46 146.264 140.588 150.919 142.464 159.709C143.988 166.837 146.399 169.348 147.127 170.274C147.854 171.208 150.028 172.28 149.278 173.827Z" fill="#FF8E00"/>
<path d="M117.505 125.614C115.155 117.835 112.184 108.732 107.697 105.616C103.724 102.86 99.8575 103.357 98.02 104.559C98.02 104.559 94.7048 105.914 93.832 109.337C92.3927 114.956 94.2837 121.702 95.5164 128.669C96.7491 135.636 97.3922 140.429 97.9511 146.026C98.0047 146.531 107.261 163.007 107.261 163.007L114.649 166.965C114.649 166.965 120.292 154.761 120.208 153.039C120.131 151.308 119.22 131.295 117.505 125.614Z" fill="#FFE4B4"/>
<path d="M98.2343 152.251C98.1348 154.111 102.621 168.942 102.621 168.942L114.657 166.951C114.657 166.951 123.194 161.898 123.431 152.733C123.799 138.914 121.433 132.406 119.718 126.725C117.36 118.962 112.107 108.733 107.659 105.563C105.048 103.703 102.154 103.427 100.968 103.657C100.968 103.657 108.869 109.843 112.865 120.424C116.862 131.005 117.804 143.232 117.804 143.232C117.804 143.232 114.864 145.399 107.927 146.394C102.568 147.167 97.9434 145.858 97.9434 145.858C97.9434 145.858 98.3645 149.893 98.2343 152.251Z" fill="#FFE265"/>
<path d="M123.331 165.121L118.516 155.06L118.776 151.477C118.776 151.477 119.802 148.468 113.394 153.33C110.423 155.581 108.631 159.731 108.631 159.731C108.631 159.731 107.728 157.495 104.558 154.54C101.741 151.921 97.9509 150.65 97.9509 150.65C97.9509 150.65 90.0803 149.119 89.2228 149.785C83.672 154.118 79.6142 159.394 79.6142 159.394L75.5334 174.821L68.75 178.978C68.75 178.978 70.6028 181.689 73.2825 180.678C75.3727 179.889 77.9605 177.524 79.3539 174.545C81.268 170.449 85.2875 162.701 87.3317 160.251C91.2823 155.535 95.1564 153.812 98.0428 155.183C101.327 156.737 98.7012 172.248 98.7012 172.248L77.5853 190.019L77.2255 192.438C77.2255 192.438 80.2956 195.386 88.7558 195.11C97.2159 194.834 108.532 191.703 115.69 181.941C122.007 173.336 123.331 165.121 123.331 165.121Z" fill="#FFA726"/>
<path d="M106.679 166.048C106.862 170.298 104.213 176.737 98.0883 182.104C91.9709 187.471 85.5091 189.247 81.4972 189.553C78.5878 189.775 77.7227 188.114 77.7227 188.114C77.7227 188.114 83.5873 182.716 87.9438 178.39C92.0781 174.279 96.58 165.643 97.56 161.669C98.54 157.695 97.6519 155.023 97.6519 155.023C97.6519 155.023 99.5506 155.552 102.345 158.354C105.055 161.072 106.579 163.69 106.679 166.048Z" fill="#FFB803"/>
<path d="M80.548 191.911C79.9126 193.388 77.7305 193.45 76.7812 192.63C75.8854 191.857 75.0126 190.318 75.916 188.595C76.5132 187.462 78.4732 187.148 79.5757 188.029C80.6782 188.909 81.1223 190.571 80.548 191.911Z" fill="#875B54"/>
<path d="M76.1904 175.909C73.6792 179.392 71.1603 179.92 70.119 180.035C69.2079 180.142 68.2126 178.979 68.3274 177.907C68.4423 176.835 70.2032 175.327 70.4176 172.035C70.632 168.742 70.3717 156.668 77.0709 149.732C81.7948 144.847 87.5829 146.532 91.3192 147.825C95.5301 149.28 97.9571 150.658 97.9571 150.658C97.9571 150.658 94.5118 150.421 88.5706 155.107C85.1176 157.832 83.0887 161.576 81.1746 165.871C79.7965 168.98 77.959 173.459 76.1904 175.909Z" fill="#FEE4B4"/>
<path d="M142.985 184.897C142.281 186.306 140.558 187.179 139.035 187.11C135.811 186.972 132.871 185.311 129.617 181.115C125.016 175.174 121.012 160.918 118.011 157.121C115.982 154.556 113.455 153.285 113.455 153.285C113.455 153.285 114.849 152.106 116.242 151.378C117.635 150.651 121.004 150.996 121.004 150.996L135.383 174.102L142.985 184.897Z" fill="#FEB804"/>
<path d="M134.86 153.414C138.015 157.923 138.428 161.882 138.903 165.924C139.332 169.576 140.212 177.255 141.537 179.759C142.869 182.263 144.163 183.893 142.731 185.417C141.299 186.941 137.088 186.397 134.064 183.105C131.63 180.448 130.282 177.554 128.452 173.305C126.622 169.056 123.927 159.026 120.428 154.493C118.193 151.599 115.965 151.515 115.965 151.515C115.965 151.515 118.913 149.111 124.54 149.05C129.585 148.996 132.234 149.662 134.86 153.414Z" fill="#FFE4B4"/>
</g>
<defs>
<filter id="filter0_ii_1288_2853" x="-163" y="-463" width="1226" height="1230" filterUnits="userSpaceOnUse" color-interpolation-filters="sRGB">
<feFlood flood-opacity="0" result="BackgroundImageFix"/>
<feBlend mode="normal" in="SourceGraphic" in2="BackgroundImageFix" result="shape"/>
<feColorMatrix in="SourceAlpha" type="matrix" values="0 0 0 0 0 0 0 0 0 0 0 0 0 0 0 0 0 0 127 0" result="hardAlpha"/>
<feOffset dy="4"/>
<feGaussianBlur stdDeviation="97"/>
<feComposite in2="hardAlpha" operator="arithmetic" k2="-1" k3="1"/>
<feColorMatrix type="matrix" values="0 0 0 0 1 0 0 0 0 1 0 0 0 0 1 0 0 0 0.25 0"/>
<feBlend mode="normal" in2="shape" result="effect1_innerShadow_1288_2853"/>
<feColorMatrix in="SourceAlpha" type="matrix" values="0 0 0 0 0 0 0 0 0 0 0 0 0 0 0 0 0 0 127 0" result="hardAlpha"/>
<feMorphology radius="250" operator="erode" in="SourceAlpha" result="effect2_innerShadow_1288_2853"/>
<feOffset/>
<feGaussianBlur stdDeviation="82.5"/>
<feComposite in2="hardAlpha" operator="arithmetic" k2="-1" k3="1"/>
<feColorMatrix type="matrix" values="0 0 0 0 0.160784 0 0 0 0 0.462745 0 0 0 0 0.815686 0 0 0 0.15 0"/>
<feBlend mode="normal" in2="effect1_innerShadow_1288_2853" result="effect2_innerShadow_1288_2853"/>
</filter>
<clipPath id="clip0_1288_2853">
<rect width="900" height="300" fill="white"/>
</clipPath>
</defs>
</svg>
