<svg width="787" height="98" viewBox="0 0 787 98" fill="none" xmlns="http://www.w3.org/2000/svg">
<path d="M126.763 78.8203C124.767 78.8203 122.784 78.7383 120.815 78.5742C118.874 78.4375 116.892 78.2461 114.868 78L118.478 69.0176C119.927 69.7012 121.526 70.1113 123.276 70.248C125.026 70.3574 126.763 70.4121 128.485 70.4121C133.489 70.4121 137.358 68.9355 140.093 65.9824C142.827 63.002 144.194 58.8047 144.194 53.3906C144.194 49.7812 143.388 47.0059 141.774 45.0645C140.161 43.0957 137.864 42.1113 134.884 42.1113C127.884 42.1113 124.384 45.9258 124.384 53.5547L121.841 42.3984H125.327C125.847 36.6016 129.36 33.7031 135.868 33.7031C141.556 33.7031 145.958 35.4121 149.075 38.8301C152.192 42.248 153.751 47.1016 153.751 53.3906C153.751 61.457 151.399 67.7188 146.696 72.1758C141.993 76.6055 135.349 78.8203 126.763 78.8203ZM114.868 78V16.4766H124.384V77.2617L114.868 78ZM190.03 78.4102L189.333 65.5312L188.513 61.2246V50.9297C188.513 48.2227 187.501 46.2402 185.477 44.9824C183.481 43.7246 180.487 43.041 176.495 42.9316L165.831 42.6445L166.651 34.1133L175.675 34.2363C183.085 34.3457 188.595 35.9043 192.204 38.9121C195.813 41.8926 197.618 46.2539 197.618 51.9961V69.4277L204.55 70.3301V78L190.03 78.4102ZM174.895 78.8203C170.329 78.8203 166.788 77.7129 164.272 75.498C161.757 73.2832 160.499 70.1523 160.499 66.1055C160.499 61.4023 162.208 57.8066 165.626 55.3184C169.044 52.8027 173.87 51.5449 180.104 51.5449C182.62 51.5449 184.835 51.6953 186.749 51.9961C188.69 52.2695 190.495 52.707 192.163 53.3086L190.358 60.1172C188.554 59.707 186.831 59.4746 185.19 59.4199C183.577 59.3379 181.895 59.2969 180.145 59.2969C173.227 59.2969 169.768 61.375 169.768 65.5312C169.768 67.3086 170.37 68.6758 171.573 69.6328C172.776 70.5625 174.499 71.0273 176.741 71.0273C179.366 71.0273 181.554 70.5762 183.304 69.6738C185.054 68.7441 186.352 67.5684 187.2 66.1465C188.075 64.6973 188.513 63.2207 188.513 61.7168V57.6562L190.727 68.8125H187.282L188.677 67.5C188.649 70.0156 188.075 72.1211 186.954 73.8164C185.833 75.4844 184.247 76.7422 182.196 77.5898C180.145 78.4102 177.712 78.8203 174.895 78.8203ZM238.245 78V50.6426C238.245 48.0176 237.602 45.9941 236.317 44.5723C235.059 43.1504 233.282 42.4395 230.985 42.4395C224.559 42.4395 221.346 46.459 221.346 54.498L218.803 42.3984H222.249C222.55 39.4727 223.589 37.2988 225.366 35.877C227.171 34.4277 229.823 33.7031 233.323 33.7031C237.917 33.7031 241.471 35.0977 243.987 37.8867C246.503 40.6758 247.76 44.6133 247.76 49.6992V78H238.245ZM211.831 78V34.5234H220.403L221.346 43.7109V78H211.831ZM286.788 78.4102L286.09 65.5312L285.27 61.2246V50.9297C285.27 48.2227 284.258 46.2402 282.235 44.9824C280.239 43.7246 277.245 43.041 273.252 42.9316L262.588 42.6445L263.409 34.1133L272.432 34.2363C279.842 34.3457 285.352 35.9043 288.961 38.9121C292.571 41.8926 294.376 46.2539 294.376 51.9961V69.4277L301.307 70.3301V78L286.788 78.4102ZM271.653 78.8203C267.086 78.8203 263.545 77.7129 261.03 75.498C258.514 73.2832 257.256 70.1523 257.256 66.1055C257.256 61.4023 258.965 57.8066 262.383 55.3184C265.801 52.8027 270.627 51.5449 276.862 51.5449C279.377 51.5449 281.592 51.6953 283.506 51.9961C285.448 52.2695 287.252 52.707 288.92 53.3086L287.116 60.1172C285.311 59.707 283.588 59.4746 281.948 59.4199C280.335 59.3379 278.653 59.2969 276.903 59.2969C269.985 59.2969 266.526 61.375 266.526 65.5312C266.526 67.3086 267.127 68.6758 268.331 69.6328C269.534 70.5625 271.256 71.0273 273.499 71.0273C276.124 71.0273 278.311 70.5762 280.061 69.6738C281.811 68.7441 283.11 67.5684 283.958 66.1465C284.833 64.6973 285.27 63.2207 285.27 61.7168V57.6562L287.485 68.8125H284.04L285.434 67.5C285.407 70.0156 284.833 72.1211 283.711 73.8164C282.59 75.4844 281.004 76.7422 278.954 77.5898C276.903 78.4102 274.469 78.8203 271.653 78.8203ZM335.002 78V50.6426C335.002 48.0176 334.36 45.9941 333.075 44.5723C331.817 43.1504 330.039 42.4395 327.743 42.4395C321.317 42.4395 318.104 46.459 318.104 54.498L315.561 42.3984H319.006C319.307 39.4727 320.346 37.2988 322.123 35.877C323.928 34.4277 326.58 33.7031 330.08 33.7031C334.674 33.7031 338.229 35.0977 340.745 37.8867C343.26 40.6758 344.518 44.6133 344.518 49.6992V78H335.002ZM308.588 78V34.5234H317.161L318.104 43.7109V78H308.588ZM383.545 78.4102L382.848 65.5312L382.028 61.2246V50.9297C382.028 48.2227 381.016 46.2402 378.992 44.9824C376.996 43.7246 374.002 43.041 370.01 42.9316L359.346 42.6445L360.166 34.1133L369.19 34.2363C376.6 34.3457 382.11 35.9043 385.719 38.9121C389.328 41.8926 391.133 46.2539 391.133 51.9961V69.4277L398.065 70.3301V78L383.545 78.4102ZM368.41 78.8203C363.844 78.8203 360.303 77.7129 357.787 75.498C355.272 73.2832 354.014 70.1523 354.014 66.1055C354.014 61.4023 355.723 57.8066 359.141 55.3184C362.559 52.8027 367.385 51.5449 373.619 51.5449C376.135 51.5449 378.35 51.6953 380.264 51.9961C382.205 52.2695 384.01 52.707 385.678 53.3086L383.873 60.1172C382.069 59.707 380.346 59.4746 378.705 59.4199C377.092 59.3379 375.41 59.2969 373.66 59.2969C366.742 59.2969 363.283 61.375 363.283 65.5312C363.283 67.3086 363.885 68.6758 365.088 69.6328C366.291 70.5625 368.014 71.0273 370.256 71.0273C372.881 71.0273 375.069 70.5762 376.819 69.6738C378.569 68.7441 379.867 67.5684 380.715 66.1465C381.59 64.6973 382.028 63.2207 382.028 61.7168V57.6562L384.242 68.8125H380.797L382.192 67.5C382.164 70.0156 381.59 72.1211 380.469 73.8164C379.348 75.4844 377.762 76.7422 375.711 77.5898C373.66 78.4102 371.227 78.8203 368.41 78.8203Z" fill="#FFDC52"/>
<path d="M423.311 78.8203C421.506 78.8203 419.961 78.1777 418.676 76.8926C417.391 75.6074 416.748 74.0762 416.748 72.2988C416.748 70.4668 417.391 68.9219 418.676 67.6641C419.961 66.3789 421.506 65.7363 423.311 65.7363C425.143 65.7363 426.688 66.3789 427.945 67.6641C429.231 68.9219 429.873 70.4531 429.873 72.2578C429.873 74.0625 429.231 75.6074 427.945 76.8926C426.688 78.1777 425.143 78.8203 423.311 78.8203ZM728.226 86.2031C719.175 86.2031 712.148 82.9355 707.144 76.4004C702.14 69.8379 699.638 60.582 699.638 48.6328C699.638 36.8477 702.14 27.7285 707.144 21.2754C712.148 14.7949 719.175 11.5547 728.226 11.5547H730.112V19.9219H728.759C722.497 19.9219 717.671 22.4375 714.28 27.4688C710.89 32.4727 709.194 39.5273 709.194 48.6328C709.194 57.9023 710.89 65.0938 714.28 70.207C717.671 75.293 722.497 77.8359 728.759 77.8359H730.112V86.2031H728.226ZM745.433 86.2031V77.8359H746.786C753.048 77.8359 757.874 75.293 761.265 70.207C764.655 65.0938 766.351 57.9023 766.351 48.6328C766.351 39.5273 764.655 32.4727 761.265 27.4688C757.874 22.4375 753.048 19.9219 746.786 19.9219H745.433V11.5547H747.319C756.397 11.5547 763.425 14.7949 768.401 21.2754C773.378 27.7285 775.866 36.8477 775.866 48.6328C775.866 60.582 773.378 69.8379 768.401 76.4004C763.425 82.9355 756.397 86.2031 747.319 86.2031H745.433Z" fill="#B7B7B7"/>
<path d="M476.16 78.8203C468.586 78.8203 462.734 76.8789 458.605 72.9961C454.476 69.0859 452.412 63.4805 452.412 56.1797C452.412 49.0703 454.34 43.5469 458.195 39.6094C462.051 35.6719 467.56 33.7031 474.725 33.7031C479.045 33.7031 482.75 34.5234 485.84 36.1641C488.93 37.7773 491.117 40.0742 492.402 43.0547L485.266 48.5918C484.062 46.623 482.504 45.1055 480.59 44.0391C478.703 42.9727 476.639 42.4395 474.396 42.4395C470.514 42.4395 467.492 43.6016 465.332 45.9258C463.172 48.2227 462.092 51.5039 462.092 55.7695C462.092 60.418 463.391 63.9727 465.988 66.4336C468.586 68.8672 472.305 70.084 477.144 70.084C479.168 70.084 481.178 69.9883 483.174 69.7969C485.17 69.6055 487.111 69.3457 488.998 69.0176L490.064 77.5898C487.822 78.082 485.512 78.4102 483.133 78.5742C480.754 78.7383 478.43 78.8203 476.16 78.8203ZM520.068 78.8203C513.97 78.8203 509.226 76.8516 505.836 72.9141C502.472 68.9766 500.791 63.4258 500.791 56.2617C500.791 49.0703 502.472 43.5195 505.836 39.6094C509.226 35.6719 513.97 33.7031 520.068 33.7031C526.193 33.7031 530.937 35.6719 534.301 39.6094C537.664 43.5195 539.345 49.0703 539.345 56.2617C539.345 63.4258 537.664 68.9766 534.301 72.9141C530.937 76.8516 526.193 78.8203 520.068 78.8203ZM520.068 70.084C523.103 70.084 525.427 68.8809 527.041 66.4746C528.681 64.0684 529.502 60.6641 529.502 56.2617C529.502 51.832 528.681 48.4277 527.041 46.0488C525.4 43.6426 523.076 42.4395 520.068 42.4395C517.06 42.4395 514.736 43.6426 513.095 46.0488C511.455 48.4277 510.635 51.832 510.635 56.2617C510.635 60.6641 511.455 64.0684 513.095 66.4746C514.736 68.8809 517.06 70.084 520.068 70.084ZM564.796 78.8203C559.218 78.8203 554.939 76.9336 551.959 73.1602C549.005 69.3594 547.529 63.8223 547.529 56.5488C547.529 49.1113 549.005 43.4512 551.959 39.5684C554.939 35.6582 559.232 33.7031 564.837 33.7031C568.064 33.7031 570.621 34.4551 572.507 35.959C574.421 37.4629 575.584 39.6094 575.994 42.3984H579.439L576.896 55.3184C576.896 50.916 576.076 47.6211 574.435 45.4336C572.795 43.2188 570.361 42.1113 567.134 42.1113C563.853 42.1113 561.351 43.3418 559.629 45.8027C557.933 48.2637 557.086 51.8457 557.086 56.5488C557.086 61.1152 557.933 64.5742 559.629 66.9258C561.324 69.25 563.826 70.4121 567.134 70.4121C570.47 70.4121 572.931 69.3184 574.517 67.1309C576.103 64.9434 576.896 61.6484 576.896 57.2461L579.849 70.125H576.035C575.707 72.9141 574.558 75.0605 572.589 76.5645C570.621 78.0684 568.023 78.8203 564.796 78.8203ZM578.045 78.4102L576.896 69.8379V16.4766H586.412V78L578.045 78.4102ZM620.476 78.8203C613.039 78.8203 607.283 76.8789 603.208 72.9961C599.162 69.0859 597.138 63.4805 597.138 56.1797C597.138 49.0703 598.861 43.5469 602.306 39.6094C605.751 35.6719 610.605 33.7031 616.867 33.7031C622.855 33.7031 627.49 35.4941 630.771 39.0762C634.052 42.6582 635.693 47.8672 635.693 54.7031C635.693 56.6992 635.611 58.5586 635.447 60.2812H604.439V53.3086H626.792C626.792 49.7266 625.917 46.9785 624.167 45.0645C622.445 43.1504 620.039 42.1934 616.949 42.1934C613.531 42.1934 610.878 43.3828 608.992 45.7617C607.105 48.1133 606.162 51.4492 606.162 55.7695C606.162 60.4727 607.488 64.0547 610.14 66.5156C612.792 68.9766 616.566 70.207 621.46 70.207C623.32 70.207 625.152 70.1113 626.956 69.9199C628.761 69.7012 630.607 69.4141 632.494 69.0586L633.56 77.6719C630.908 78.1641 628.488 78.4785 626.3 78.6152C624.113 78.752 622.171 78.8203 620.476 78.8203ZM661.841 78.8203C658.56 78.8203 655.702 78.7246 653.269 78.5332C650.863 78.3418 648.689 78.0273 646.747 77.5898L647.855 68.7715C650.917 69.209 653.57 69.5371 655.812 69.7559C658.081 69.9746 660.091 70.084 661.841 70.084C666.025 70.084 669.046 69.7148 670.906 68.9766C672.792 68.2383 673.736 67.0625 673.736 65.4492C673.736 64.3555 673.435 63.5352 672.833 62.9883C672.232 62.4141 671.302 61.9629 670.044 61.6348L658.601 58.5586C654.8 57.5469 651.984 56.2207 650.152 54.5801C648.32 52.9121 647.404 50.5059 647.404 47.3613C647.404 42.6309 649.277 39.1719 653.023 36.9844C656.769 34.7969 662.689 33.7031 670.782 33.7031C672.806 33.7031 674.761 33.7715 676.648 33.9082C678.534 34.0176 680.49 34.2227 682.513 34.5234L681.488 43.0137C679.191 42.7949 677.167 42.6445 675.417 42.5625C673.667 42.4805 672.04 42.4395 670.536 42.4395C665.861 42.4395 662.47 42.7949 660.365 43.5059C658.286 44.2168 657.247 45.3789 657.247 46.9922C657.247 48.0586 657.603 48.8379 658.314 49.3301C659.052 49.8223 660.173 50.2598 661.677 50.6426L671.152 53.1035C675.445 54.1699 678.603 55.6328 680.626 57.4922C682.65 59.3516 683.661 61.9629 683.661 65.3262C683.661 70.002 681.911 73.4199 678.411 75.5801C674.911 77.7402 669.388 78.8203 661.841 78.8203Z" fill="#51CBFF"/>
<path d="M91.278 72.8269C90.4052 74.6338 86.7532 74.5189 84.7396 73.8834C79.5946 72.2603 76.3943 67.835 76.3943 67.835L49.873 56.5803L41.7498 52.3158C41.7498 52.3158 40.1726 49.6361 43.327 47.5919C46.4813 45.5477 48.694 45.3945 48.694 45.3945L57.8355 51.2133C57.8355 51.2133 63.7385 46.6195 69.7334 45.9228C75.4602 45.2644 82.5882 49.9194 84.464 58.7087C85.9876 65.8367 88.3993 68.348 89.1266 69.2744C89.854 70.2084 92.0284 71.2803 91.278 72.8269Z" fill="#FF8E00"/>
<path d="M59.5052 24.614C57.1547 16.8352 54.1841 7.73195 49.6975 4.61585C45.7239 1.8596 41.8575 2.35726 40.02 3.55929C40.02 3.55929 36.7048 4.91445 35.832 8.33679C34.3927 13.9565 36.2837 20.7016 37.5164 27.6688C38.7491 34.636 39.3922 39.4288 39.9511 45.0255C40.0047 45.5309 49.2611 62.0071 49.2611 62.0071L56.6494 65.9654C56.6494 65.9654 62.292 53.7613 62.2078 52.0387C62.1312 50.3084 61.2202 30.2949 59.5052 24.614Z" fill="#FFE4B4"/>
<path d="M40.2343 51.2509C40.1348 53.1114 44.6213 67.9415 44.6213 67.9415L56.657 65.9509C56.657 65.9509 65.1937 60.8978 65.431 51.7332C65.7985 37.9137 63.4327 31.4059 61.7177 25.725C59.3596 17.9615 54.1074 7.73278 49.6591 4.56309C47.0484 2.70262 44.1543 2.427 42.9676 2.65668C42.9676 2.65668 50.8688 8.84294 54.8654 19.4239C58.862 30.0048 59.8037 42.2318 59.8037 42.2318C59.8037 42.2318 56.8637 44.3986 49.9271 45.3939C44.5677 46.1672 39.9434 44.8579 39.9434 44.8579C39.9434 44.8579 40.3645 48.8928 40.2343 51.2509Z" fill="#FFE265"/>
<path d="M65.3314 64.1205L60.5156 54.0602L60.7759 50.4771C60.7759 50.4771 61.8019 47.4682 55.3936 52.3299C52.423 54.5808 50.6314 58.7305 50.6314 58.7305C50.6314 58.7305 49.728 56.4949 46.5583 53.5396C43.7408 50.9211 39.9509 49.6502 39.9509 49.6502C39.9509 49.6502 32.0803 48.119 31.2228 48.7851C25.672 53.1185 21.6142 58.3936 21.6142 58.3936L17.5334 73.821L10.75 77.9783C10.75 77.9783 12.6028 80.6886 15.2825 79.678C17.3727 78.8894 19.9605 76.5236 21.3539 73.5454C23.268 69.4493 27.2875 61.7011 29.3317 59.2511C33.2823 54.5349 37.1564 52.8122 40.0428 54.1827C43.3273 55.7369 40.7012 71.2485 40.7012 71.2485L19.5853 89.0186L19.2255 91.438C19.2255 91.438 22.2956 94.3857 30.7558 94.11C39.2159 93.8344 50.5319 90.703 57.6905 80.9413C64.0069 72.3357 65.3314 64.1205 65.3314 64.1205Z" fill="#FFA726"/>
<path d="M48.6786 65.0484C48.8623 69.2977 46.2133 75.7366 40.0883 81.1036C33.9709 86.4706 27.5091 88.2469 23.4972 88.5531C20.5878 88.7752 19.7227 87.1138 19.7227 87.1138C19.7227 87.1138 25.5873 81.7161 29.9438 77.3903C34.0781 73.2789 38.58 64.6427 39.56 60.6691C40.54 56.6955 39.6519 54.0234 39.6519 54.0234C39.6519 54.0234 41.5506 54.5517 44.3452 57.3539C47.0555 60.0719 48.5791 62.6903 48.6786 65.0484Z" fill="#FFB803"/>
<path d="M22.548 90.9106C21.9126 92.3883 19.7305 92.4495 18.7812 91.6303C17.8854 90.857 17.0126 89.3181 17.916 87.5955C18.5132 86.4624 20.4732 86.1484 21.5757 87.0289C22.6782 87.9094 23.1223 89.5708 22.548 90.9106Z" fill="#875B54"/>
<path d="M18.1904 74.9086C15.6792 78.3922 13.1603 78.9205 12.119 79.0353C11.2079 79.1425 10.2126 77.9787 10.3274 76.9069C10.4423 75.835 12.2032 74.3267 12.4176 71.0345C12.632 67.7423 12.3717 55.6684 19.0709 48.7319C23.7948 43.8472 29.5829 45.5316 33.3192 46.8255C37.5301 48.2801 39.9571 49.6583 39.9571 49.6583C39.9571 49.6583 36.5118 49.4209 30.5706 54.1066C27.1176 56.8322 25.0887 60.5761 23.1746 64.8712C21.7965 67.9797 19.959 72.4586 18.1904 74.9086Z" fill="#FEE4B4"/>
<path d="M84.9852 83.8975C84.2809 85.3062 82.5582 86.179 81.0346 86.1101C77.8113 85.9723 74.8713 84.3109 71.6174 80.1153C67.016 74.174 63.0118 59.9181 60.0105 56.1206C57.9816 53.5558 55.4551 52.2848 55.4551 52.2848C55.4551 52.2848 56.8485 51.1058 58.242 50.3784C59.6354 49.6511 63.0041 49.9956 63.0041 49.9956L77.3826 73.1022L84.9852 83.8975Z" fill="#FEB804"/>
<path d="M76.8605 52.4138C80.0148 56.9234 80.4283 60.8816 80.903 64.9241C81.3317 68.5762 82.2122 76.2554 83.5367 78.759C84.8689 81.2626 86.1628 82.8934 84.7311 84.4169C83.2994 85.9405 79.0884 85.3969 76.0642 82.1048C73.6295 79.448 72.282 76.554 70.4522 72.3048C68.6223 68.0555 65.9273 58.0259 62.4284 53.4934C60.1928 50.5993 57.9648 50.5151 57.9648 50.5151C57.9648 50.5151 60.9125 48.111 66.5398 48.0498C71.5853 47.9962 74.2344 48.6623 76.8605 52.4138Z" fill="#FFE4B4"/>
</svg>