<svg width="127" height="46" viewBox="0 0 127 46" fill="none" xmlns="http://www.w3.org/2000/svg">
<rect width="127" height="46" rx="6" fill="white"/>
<path d="M63.2188 19.8047L60.2207 29.8047H58.5605L56.4902 22.627C56.4382 22.4447 56.4023 22.2917 56.3828 22.168C56.3698 22.0378 56.3568 21.888 56.3438 21.7188H56.3047C56.2917 21.888 56.2689 22.0345 56.2363 22.1582C56.2038 22.2819 56.1582 22.4382 56.0996 22.627L53.8633 29.8047H52.2617L49.2344 19.8047H50.9141L52.9844 27.3242C53.0169 27.4349 53.043 27.5651 53.0625 27.7148C53.0885 27.8646 53.1081 28.0339 53.1211 28.2227H53.1992C53.2122 28.0794 53.2318 27.9329 53.2578 27.7832C53.2839 27.627 53.3229 27.4674 53.375 27.3047L55.6797 19.8047H57.1445L59.2148 27.3438C59.2474 27.4674 59.2734 27.6042 59.293 27.7539C59.319 27.8971 59.3418 28.0599 59.3613 28.2422H59.4395C59.446 28.112 59.4622 27.972 59.4883 27.8223C59.5208 27.6725 59.5599 27.513 59.6055 27.3438L61.6367 19.8047H63.2188Z" fill="black"/>
<path d="M73.1113 25.166H66.041C66.0671 26.2923 66.3633 27.1615 66.9297 27.7734C67.5026 28.3789 68.3034 28.6816 69.332 28.6816C69.7812 28.6816 70.2305 28.6165 70.6797 28.4863C71.1354 28.3496 71.5846 28.1348 72.0273 27.8418L72.7695 28.9844C72.2031 29.349 71.6367 29.6159 71.0703 29.7852C70.5039 29.9544 69.8822 30.0391 69.2051 30.0391C67.6947 30.0391 66.5163 29.5898 65.6699 28.6914C64.8236 27.793 64.3971 26.5397 64.3906 24.9316C64.3841 23.3236 64.8073 22.028 65.6602 21.0449C66.5195 20.0618 67.6328 19.5703 69 19.5703C70.3021 19.5703 71.3112 19.9967 72.0273 20.8496C72.75 21.696 73.1113 22.8711 73.1113 24.375V25.166ZM71.4707 23.8574C71.4642 22.9329 71.2396 22.2135 70.7969 21.6992C70.3542 21.1784 69.7454 20.918 68.9707 20.918C68.209 20.918 67.5612 21.1849 67.0273 21.7188C66.5 22.2461 66.1777 22.959 66.0605 23.8574H71.4707Z" fill="black"/>
<path d="M77.1836 28.5156H77.1445V29.8047H75.543V15H77.1445V21.5625H77.1836C77.5807 20.8984 78.0658 20.4004 78.6387 20.0684C79.2181 19.7363 79.8854 19.5703 80.6406 19.5703C81.9232 19.5703 82.9258 20.0195 83.6484 20.918C84.3776 21.8099 84.7422 23.0078 84.7422 24.5117C84.7422 26.1849 84.3353 27.526 83.5215 28.5352C82.7077 29.5378 81.5944 30.0391 80.1816 30.0391C79.5241 30.0391 78.9447 29.9121 78.4434 29.6582C77.9421 29.4043 77.5221 29.0234 77.1836 28.5156ZM77.1445 24.3262V25.7227C77.1445 26.5495 77.4115 27.2526 77.9453 27.832C78.4857 28.4049 79.1693 28.6914 79.9961 28.6914C80.9661 28.6914 81.7246 28.3203 82.2715 27.5781C82.8249 26.8359 83.1016 25.804 83.1016 24.4824C83.1016 23.3691 82.8444 22.4967 82.3301 21.8652C81.8158 21.2337 81.1191 20.918 80.2402 20.918C79.3092 20.918 78.5605 21.2435 77.9941 21.8945C77.4277 22.5391 77.1445 23.3496 77.1445 24.3262Z" fill="black"/>
<path d="M86.3633 29.0527L87.125 27.8223C87.5612 28.1087 87.9876 28.3268 88.4043 28.4766C88.821 28.6198 89.2702 28.6914 89.752 28.6914C90.4355 28.6914 90.9531 28.5645 91.3047 28.3105C91.6628 28.0566 91.8418 27.6758 91.8418 27.168C91.8418 26.7578 91.6823 26.4128 91.3633 26.1328C91.0508 25.8464 90.5592 25.6185 89.8887 25.4492C88.6387 25.1302 87.7826 24.7298 87.3203 24.248C86.8581 23.7598 86.627 23.1608 86.627 22.4512C86.627 21.6309 86.9362 20.9473 87.5547 20.4004C88.1732 19.847 89.0358 19.5703 90.1426 19.5703C90.6764 19.5703 91.1842 19.6387 91.666 19.7754C92.1478 19.9121 92.6393 20.1465 93.1406 20.4785L92.4277 21.6895C91.972 21.403 91.5618 21.2044 91.1973 21.0938C90.8392 20.9766 90.4746 20.918 90.1035 20.918C89.459 20.918 88.9674 21.0384 88.6289 21.2793C88.2904 21.5137 88.1211 21.8555 88.1211 22.3047C88.1211 22.7539 88.2936 23.0924 88.6387 23.3203C88.9902 23.5482 89.5534 23.763 90.3281 23.9648C91.3438 24.2383 92.1022 24.6224 92.6035 25.1172C93.1113 25.6055 93.3652 26.2467 93.3652 27.041C93.3652 27.9655 93.0365 28.6979 92.3789 29.2383C91.7279 29.7721 90.8327 30.0391 89.6934 30.0391C89.0814 30.0391 88.4922 29.9544 87.9258 29.7852C87.3659 29.6159 86.8451 29.3717 86.3633 29.0527Z" fill="black"/>
<path d="M96.6172 17.4121C96.2917 17.4121 96.0182 17.3047 95.7969 17.0898C95.5755 16.8685 95.4648 16.5983 95.4648 16.2793C95.4648 15.9603 95.5755 15.6934 95.7969 15.4785C96.0182 15.2572 96.2917 15.1465 96.6172 15.1465C96.9427 15.1465 97.2161 15.2572 97.4375 15.4785C97.6589 15.6934 97.7695 15.9603 97.7695 16.2793C97.7695 16.5983 97.6589 16.8685 97.4375 17.0898C97.2161 17.3047 96.9427 17.4121 96.6172 17.4121ZM97.3984 29.8047H95.7969V19.8047H97.3984V29.8047Z" fill="black"/>
<path d="M105.406 29.6875C105.133 29.7982 104.863 29.8796 104.596 29.9316C104.335 29.9902 104.039 30.0195 103.707 30.0195C102.913 30.0195 102.288 29.7884 101.832 29.3262C101.383 28.8574 101.158 28.1673 101.158 27.2559V21.1719H99.4395V19.8047H101.158V17.3633L102.76 16.8457V19.8047H105.279V21.1719H102.76V27.0703C102.76 27.6432 102.861 28.0566 103.062 28.3105C103.271 28.5645 103.58 28.6914 103.99 28.6914C104.186 28.6914 104.374 28.6686 104.557 28.623C104.739 28.5775 104.892 28.5254 105.016 28.4668L105.406 29.6875Z" fill="black"/>
<path d="M115.455 25.166H108.385C108.411 26.2923 108.707 27.1615 109.273 27.7734C109.846 28.3789 110.647 28.6816 111.676 28.6816C112.125 28.6816 112.574 28.6165 113.023 28.4863C113.479 28.3496 113.928 28.1348 114.371 27.8418L115.113 28.9844C114.547 29.349 113.98 29.6159 113.414 29.7852C112.848 29.9544 112.226 30.0391 111.549 30.0391C110.038 30.0391 108.86 29.5898 108.014 28.6914C107.167 27.793 106.741 26.5397 106.734 24.9316C106.728 23.3236 107.151 22.028 108.004 21.0449C108.863 20.0618 109.977 19.5703 111.344 19.5703C112.646 19.5703 113.655 19.9967 114.371 20.8496C115.094 21.696 115.455 22.8711 115.455 24.375V25.166ZM113.814 23.8574C113.808 22.9329 113.583 22.2135 113.141 21.6992C112.698 21.1784 112.089 20.918 111.314 20.918C110.553 20.918 109.905 21.1849 109.371 21.7188C108.844 22.2461 108.521 22.959 108.404 23.8574H113.814Z" fill="black"/>
<path d="M30.0625 38.4962C28.7708 38.8295 27.3958 38.9961 25.9375 38.9961C24.5625 38.9961 23.2292 38.8295 21.9375 38.4962C20.2708 36.2468 19.1042 33.0809 18.4375 28.9985H11.1875C10.8958 28.332 10.6667 27.6655 10.5 26.999H18.1875C18.0625 25.666 17.9792 24.333 17.9375 23C17.9792 21.6253 18.0625 20.2923 18.1875 19.001H10.5C10.6667 18.2928 10.8958 17.6263 11.1875 17.0015H18.4375C19.1042 12.9191 20.2708 9.75323 21.9375 7.50378C23.2292 7.17053 24.5625 7.00391 25.9375 7.00391C25.5208 6.96225 24.9583 7.25384 24.25 7.87869C23.5417 8.5452 22.8542 9.60744 22.1875 11.0654C21.4375 12.7317 20.875 14.7104 20.5 17.0015H31.5C31.125 14.7104 30.5625 12.7317 29.8125 11.0654C29.1458 9.60744 28.4583 8.5452 27.75 7.87869C27.0417 7.25384 26.4375 6.96225 25.9375 7.00391C27.3958 7.00391 28.7708 7.17053 30.0625 7.50378C31.7292 9.75323 32.8958 12.9191 33.5625 17.0015H40.8125C41.1042 17.6263 41.3333 18.2928 41.5 19.001H33.8125C33.9375 20.2923 34 21.6253 34 23C34 24.333 33.9375 25.666 33.8125 26.999H41.5C41.3333 27.6655 41.1042 28.332 40.8125 28.9985H33.5625C32.8958 33.0809 31.7292 36.2468 30.0625 38.4962ZM20.5 28.9985C20.875 31.2896 21.4375 33.2683 22.1875 34.9346C22.8542 36.3926 23.5417 37.4548 24.25 38.1213C24.9583 38.7462 25.5208 39.0378 25.9375 38.9961C26.4375 39.0378 27.0417 38.7462 27.75 38.1213C28.4583 37.4548 29.1458 36.3926 29.8125 34.9346C30.5625 33.2683 31.125 31.2896 31.5 28.9985H20.5ZM32 23C32 21.6253 31.9375 20.2923 31.8125 19.001H20.1875C20.0625 20.2923 19.9792 21.6253 19.9375 23C19.9792 24.3747 20.0625 25.7077 20.1875 26.999H31.8125C31.9375 25.7077 32 24.3747 32 23Z" fill="#84B5FF" fill-opacity="0.5"/>
<path d="M32 23C32 24.3747 31.9375 25.7077 31.8125 26.999H20.1875C20.0625 25.7077 19.9792 24.3747 19.9375 23C19.9792 21.6253 20.0625 20.2923 20.1875 19.001H31.8125C31.9375 20.2923 32 21.6253 32 23ZM41.5 19.001C41.8333 20.2923 42 21.6253 42 23C42 24.3747 41.8333 25.7077 41.5 26.999H33.8125C33.9375 25.666 34 24.333 34 23C34 21.6253 33.9375 20.2923 33.8125 19.001H41.5ZM40.8125 17.0015H33.5625C32.8958 12.9191 31.7292 9.75323 30.0625 7.50378C32.5625 8.21194 34.75 9.37833 36.625 11.0029C38.4583 12.6692 39.8542 14.6687 40.8125 17.0015ZM31.5 17.0015H20.5C20.875 14.7104 21.4375 12.7317 22.1875 11.0654C22.8542 9.60744 23.5417 8.5452 24.25 7.87869C24.9583 7.25384 25.5417 6.96225 26 7.00391C26.4583 6.96225 27.0417 7.25384 27.75 7.87869C28.4583 8.5452 29.1458 9.60744 29.8125 11.0654C30.5625 12.7317 31.125 14.7104 31.5 17.0015ZM11.1875 17.0015C12.1458 14.6687 13.5417 12.6692 15.375 11.0029C17.25 9.37833 19.4375 8.21194 21.9375 7.50378C20.2708 9.75323 19.1042 12.9191 18.4375 17.0015H11.1875ZM18.1875 19.001C18.0625 20.2923 17.9792 21.6253 17.9375 23C17.9792 24.333 18.0625 25.666 18.1875 26.999H10.5C10.1667 25.7077 10 24.3747 10 23C10 21.6253 10.1667 20.2923 10.5 19.001H18.1875ZM22.1875 34.9346C21.4375 33.2683 20.875 31.2896 20.5 28.9985H31.5C31.125 31.2896 30.5625 33.2683 29.8125 34.9346C29.1458 36.3926 28.4583 37.4548 27.75 38.1213C27.0417 38.7462 26.4375 39.0378 25.9375 38.9961C25.5208 39.0378 24.9583 38.7462 24.25 38.1213C23.5417 37.4548 22.8542 36.3926 22.1875 34.9346ZM21.9375 38.4962C19.4375 37.7881 17.25 36.6217 15.375 34.9971C13.5417 33.3308 12.1458 31.3313 11.1875 28.9985H18.4375C19.1042 33.0809 20.2708 36.2468 21.9375 38.4962ZM30.0625 38.4962C31.7292 36.2468 32.8958 33.0809 33.5625 28.9985H40.8125C39.8542 31.3313 38.4583 33.3308 36.625 34.9971C34.75 36.6217 32.5625 37.7881 30.0625 38.4962Z" fill="#84B5FF"/>
</svg>
